<?xml version="1.0" encoding="utf-8"?>
<!-- Generator: Adobe Illustrator 23.0.4, SVG Export Plug-In . SVG Version: 6.00 Build 0)  -->
<svg version="1.1" id="layer" xmlns="http://www.w3.org/2000/svg" xmlns:xlink="http://www.w3.org/1999/xlink" x="0px" y="0px"
	 viewBox="0 0 863.2 311.3" style="enable-background:new 0 0 863.2 311.3;" xml:space="preserve">
<style type="text/css">
	.st0{fill:#FFFFFF;}
	.st1{fill:#571010;stroke:#571010;stroke-width:2;stroke-miterlimit:10;}
	.st2{fill:#EB8E8E;}
	.st3{enable-background:new    ;}
	.st4{fill:#354621;}
</style>
<path class="st0" d="M0,143.4v139l0.4-0.1v28.9l844.9-123.4v-41.4v-83l17.9-17.6V0L716.6,21.3v0l-77.9,11.3l-9,9.1l0,0
	c-5.1-3-11.3-4.6-18.3-4.6c-2.5,0-5.1,0.2-7.8,0.6l-33.8,4.9l0,0l-78.1,11.3v0l-47.1,6.8l-17.1,17.1l-0.1,0V63.3l-47.1,6.8l-9.1,9.1
	c-5-3-11.2-4.5-18.3-4.5c-2.7,0-5.6,0.2-8.7,0.7l-38.6,5.6l-8.6,8.5c-5.8-3.6-12.7-5.2-19.3-5.2c-2.4,0-4.9,0.2-7.4,0.6
	c-10.6,1.5-19.3,5.7-25.9,12.4l-0.2,0.2l-10.8,10.7c-5.8-7.9-15-12.2-26.8-12.2c-2.7,0-5.6,0.2-8.7,0.7l-38.6,5.6l-0.3,0.4v-21
	l-68.5,9.9l-21.4,21.2v2.5l-47.7,6.9L0,143.4z M244,97.6L244,97.6"/>
<path class="st1" d="M37,262.6l-17.1,2.5V156.4l16.4-21l45.2-6.6v15.5l-16.4,21l-11.7,1.7v14.1l22-3.2v15.5l-16.4,21l-5.7,0.8v26.2
	L37,262.6z M143.9,114V99.1l-14.9,2.2l-8.7,11.2v-10l-14.9,2.2l-16.4,21v14.9l11.9-1.7l-5.1,6.5L78.4,256.6l15.7-2.3l16.4-21
	l0.2-1.1l7.4-1.1l3,19.3l17.2-2.5l16.4-21l-17.2-104.7L143.9,114z M174.9,242.6l-17.1,2.5V136.4l16.4-21l25.8-3.7
	c17.7-2.6,25.3,4.6,25.3,21.3v8.5c0,7.8-1.7,13.9-5.3,18.5l-4.4,5.7c7.4,2.8,9.9,10.4,9.9,21v16.8c0,5.3,0.2,9.1,1.9,12.9l-16.4,21
	l-17.4,2.5c-0.9-2.7-1.6-4.3-1.6-13.1v-17.1c0-2.6-0.2-4.8-0.7-6.5v18.4L174.9,242.6z M275,222c-4.3,5.4-10.7,8.8-19.1,10.1
	c-16.8,2.4-25.5-6.2-25.5-23.6v-56.5c0-8.7,2.2-15.9,6.5-21.2l16.2-20.8c4.3-5.4,10.7-8.8,19.1-10.1c16.8-2.4,25.5,6.2,25.5,23.6
	v10.6l-10.2,13l10.2-1.5V180c0,8.7-2.2,15.9-6.5,21.2L275,222z M361.9,139.5c8.1,2.7,11.2,10.2,11.2,21v8.9c0,7.4-1.8,13.6-5.2,18.4
	c-0.1,0.1-0.1,0.1-0.2,0.2c-0.1,0.1-0.1,0.1-0.2,0.2c-0.1,0.1-0.1,0.1-0.2,0.2c-0.1,0.1-0.1,0.1-0.2,0.2c-0.1,0.1-0.1,0.1-0.2,0.2
	c-0.1,0.1-0.1,0.1-0.2,0.2c-0.1,0.1-0.1,0.1-0.2,0.2c-0.1,0.1-0.1,0.1-0.2,0.2c-0.1,0.1-0.1,0.1-0.2,0.2c-0.1,0.1-0.1,0.1-0.2,0.2
	c-0.1,0.1-0.1,0.1-0.2,0.2c-0.1,0.1-0.1,0.1-0.2,0.2c-0.1,0.1-0.1,0.1-0.2,0.2c-0.1,0.1-0.1,0.1-0.2,0.2c-0.1,0.1-0.1,0.1-0.2,0.2
	c-0.1,0.1-0.1,0.1-0.2,0.2c-0.1,0.1-0.1,0.1-0.2,0.2c-0.1,0.1-0.1,0.1-0.2,0.2c-0.1,0.1-0.1,0.1-0.2,0.2c-0.1,0.1-0.1,0.1-0.2,0.2
	c-0.1,0.1-0.1,0.1-0.2,0.2c-0.1,0.1-0.1,0.1-0.2,0.2c-0.1,0.1-0.1,0.1-0.2,0.2c-0.1,0.1-0.1,0.1-0.2,0.2c-0.1,0.1-0.1,0.1-0.2,0.2
	c-0.1,0.1-0.1,0.1-0.2,0.2c-0.1,0.1-0.1,0.1-0.2,0.2c-0.1,0.1-0.1,0.1-0.2,0.2c-0.1,0.1-0.1,0.1-0.2,0.2c-0.1,0.1-0.1,0.1-0.2,0.2
	c-0.1,0.1-0.1,0.1-0.2,0.2c-0.1,0.1-0.1,0.1-0.2,0.2c-0.1,0.1-0.1,0.1-0.2,0.2c-0.1,0.1-0.1,0.1-0.2,0.2c-0.1,0.1-0.1,0.1-0.2,0.2
	c-0.1,0.1-0.1,0.1-0.2,0.2c-0.1,0.1-0.1,0.1-0.2,0.2c-0.1,0.1-0.1,0.1-0.2,0.2c-0.1,0.1-0.1,0.1-0.2,0.2c-0.1,0.1-0.1,0.1-0.2,0.2
	c-0.1,0.1-0.1,0.1-0.2,0.2c-0.1,0.1-0.1,0.1-0.2,0.2c-0.1,0.1-0.1,0.1-0.2,0.2c-0.1,0.1-0.1,0.1-0.2,0.2c-0.1,0.1-0.1,0.1-0.2,0.2
	c-0.1,0.1-0.1,0.1-0.2,0.2c-0.1,0.1-0.1,0.1-0.2,0.2c-0.1,0.1-0.1,0.1-0.2,0.2c-0.1,0.1-0.1,0.1-0.2,0.2c-0.1,0.1-0.1,0.1-0.2,0.2
	c-0.1,0.1-0.1,0.1-0.2,0.2c-0.1,0.1-0.1,0.1-0.2,0.2c-0.1,0.1-0.1,0.1-0.2,0.2c-0.1,0.1-0.1,0.1-0.2,0.2c-0.1,0.1-0.1,0.1-0.2,0.2
	c-0.1,0.1-0.1,0.1-0.2,0.2c-0.1,0.1-0.1,0.1-0.2,0.2c-0.1,0.1-0.1,0.1-0.2,0.2c-0.1,0.1-0.1,0.1-0.2,0.2c-0.1,0.1-0.1,0.1-0.2,0.2
	c-0.1,0.1-0.1,0.1-0.2,0.2c-0.1,0.1-0.1,0.1-0.2,0.2c-0.1,0.1-0.1,0.1-0.2,0.2c-0.1,0.1-0.1,0.1-0.2,0.2c-0.1,0.1-0.1,0.1-0.2,0.2
	c-0.1,0.1-0.1,0.1-0.2,0.2c-0.1,0.1-0.1,0.1-0.2,0.2c-0.1,0.1-0.1,0.1-0.2,0.2c-0.1,0.1-0.1,0.1-0.2,0.2c-0.1,0.1-0.1,0.1-0.2,0.2
	c-0.1,0.1-0.1,0.1-0.2,0.2c-0.1,0.1-0.1,0.1-0.2,0.2c-0.1,0.1-0.1,0.1-0.2,0.2c-0.1,0.1-0.1,0.1-0.2,0.2c-0.1,0.1-0.1,0.1-0.2,0.2
	c-0.1,0.1-0.1,0.1-0.2,0.2c-0.1,0.1-0.1,0.1-0.2,0.2c-0.1,0.1-0.1,0.1-0.2,0.2c-0.1,0.1-0.1,0.1-0.2,0.2c-0.1,0.1-0.1,0.1-0.2,0.2
	c-0.1,0.1-0.1,0.1-0.2,0.2c-0.1,0.1-0.1,0.1-0.2,0.2c-0.1,0.1-0.1,0.1-0.2,0.2c-0.1,0.1-0.1,0.1-0.2,0.2c-0.1,0.1-0.1,0.1-0.2,0.2
	c-0.1,0.1-0.1,0.1-0.2,0.2c-0.1,0.1-0.1,0.1-0.2,0.2c-0.1,0.1-0.1,0.1-0.2,0.2c-0.1,0.1-0.1,0.1-0.2,0.2c-0.1,0.1-0.1,0.1-0.2,0.2
	c-0.1,0.1-0.1,0.1-0.2,0.2c-0.1,0.1-0.1,0.1-0.2,0.2c-0.1,0.1-0.1,0.1-0.2,0.2c-0.1,0.1-0.1,0.1-0.2,0.2c-0.1,0.1-0.1,0.1-0.2,0.2
	c-0.1,0.1-0.1,0.1-0.2,0.2c-0.1,0.1-0.1,0.1-0.2,0.2c-0.1,0.1-0.1,0.1-0.2,0.2c-4.3,6.1-11.3,10-20.9,11.4l-26.9,3.9V115.2l16.4-21
	l25.8-3.7c17.7-2.6,25.3,4.6,25.3,21.3v3.9c0,7.8-1.6,13.8-5.2,18.3L361.9,139.5z M378.7,104.3V213l45.2-6.6l16.4-21v-15.5
	l-28.1,4.1V80.8l-17.1,2.5L378.7,104.3z M476.4,180.2V71.5L459.4,74L443,95v108.7l17.1-2.5L476.4,180.2z M554.5,168.8V60.1
	l-15.2,2.2l-13.4,17.4l-4.2-14.8L500.4,68L484,89v108.7l15.4-2.2l16.2-21l0,0l5,17.9l17.5-2.5L554.5,168.8z M608.4,172.6
	c-4.2,5.2-10.6,8.6-19.3,9.8l-27,3.9V77.7l16.4-21l27-3.9c17.1-2.5,25.5,5.8,25.5,23.2v55c0,8.7-2.1,15.8-6.4,20.9L608.4,172.6z
	 M707.3,146.7V38l-17.4,2.5l-16.4,21v27.9l-3.1,0.4V43.3l-17.1,2.5l-16.4,21v108.7l17.1-2.5l16.4-21v-27.9l3.1-0.4v46.6l17.4-2.5
	L707.3,146.7z M778,43.2V27.7l-46.6,6.8l-16.4,21v108.7l46.6-6.8l16.4-21v-15.5l-29.5,4.3V112l7.1-1l16.4-21V74.4l-23.4,3.4V66.2
	l13.1-1.9L778,43.2z M778.8,46.2v15.5l17.9-2.6v93.2l17.1-2.5l16.4-21V54.3l1.5-0.2l16.4-21V17.5l-52.8,7.7L778.8,46.2z"/>
<path class="st2" d="M53.5,181l22-3.2v15.5l-22,3.2v44.9l-17.1,2.5V135.2l45.2-6.6v15.5l-28.1,4.1V181z M154.7,226.7l-17.2,2.5
	l-3-19.3l-21,3l-3,20.1L95,235.4l17.4-111.2l25-3.6L154.7,226.7z M120.4,102.3v14.9l-14.9,2.2v-14.9L120.4,102.3z M115.8,197.9
	l16.5-2.4l-8.2-53.8L115.8,197.9z M144,98.9v14.9l-14.9,2.2v-14.9L144,98.9z M210,218.7c-0.9-2.7-1.6-4.3-1.6-13.1v-17.1
	c0-10.1-3.4-13.3-11.2-12.2l-5.9,0.9v44.3l-17.1,2.5V115.2l25.8-3.7c17.7-2.6,25.3,4.6,25.3,21.3v8.5c0,11.2-3.6,19-11.2,23.7
	c8.5,2.3,11.3,10.2,11.3,21.5v16.8c0,5.3,0.2,9.1,1.9,12.9L210,218.7z M191.4,128.2v33.4l6.7-1c6.4-0.9,10.2-4.3,10.2-13v-10.7
	c0-7.8-2.6-10.8-8.7-9.9L191.4,128.2z M274,148.8l23.9-3.5v34.5c0,17.4-8.7,28.6-25.5,31c-16.8,2.4-25.5-6.2-25.5-23.6v-56.5
	c0-17.4,8.7-28.6,25.5-31c16.8-2.4,25.5,6.2,25.5,23.6v10.6l-16.1,2.3v-11.6c0-7.8-3.4-10.2-8.9-9.4c-5.4,0.8-8.9,4.2-8.9,12v58.7
	c0,7.8,3.4,10.1,8.9,9.3c5.4-0.8,8.9-4.1,8.9-11.8v-20l-7.8,1.1V148.8z M371.6,111.5v3.9c0,11.2-3.4,18.8-11,23.5
	c9.2,2.2,12.7,10,12.7,21.4v8.9c0,16.8-8.9,27.1-25.9,29.5l-26.9,3.9V93.9l25.8-3.7C364,87.6,371.6,94.7,371.6,111.5z M337.6,107
	v28.7l6.7-1c6.4-0.9,10.2-4.3,10.2-13v-6.1c0-7.8-2.6-10.8-8.7-9.9L337.6,107z M337.6,151.2v33.4l9.8-1.4c5.7-0.8,8.8-3.9,8.8-12
	v-9.5c0-10.1-3.3-12.7-11-11.6L337.6,151.2z M395.2,83.1l17.1-2.5v93.2l28.1-4.1v15.5l-45.2,6.6V83.1z M459.5,73.8l17.1-2.5V180
	l-17.1,2.5V73.8z M515.9,95.5v78.7l-15.4,2.2V67.8l21.4-3.1l17.5,62.5V62.1l15.2-2.2v108.7l-17.5,2.5L515.9,95.5z M578.6,56.5
	l27-3.9c17.1-2.5,25.5,5.8,25.5,23.2v55c0,17.4-8.4,28.1-25.5,30.6l-27,3.9V56.5z M595.7,69.5v77.6l9.6-1.4
	c5.4-0.8,8.7-4.1,8.7-11.8V77.4c0-7.8-3.3-10.1-8.7-9.3L595.7,69.5z M670.7,151.8l-17.1,2.5V45.6l17.1-2.5v46.6l19.4-2.8V40.3
	l17.4-2.5v108.7l-17.4,2.5v-46.6l-19.4,2.8V151.8z M748.6,77.6l23.4-3.4v15.5l-23.4,3.4v31.8l29.5-4.3v15.5l-46.6,6.8V34.3l46.6-6.8
	V43l-29.5,4.3V77.6z M795.4,25l52.8-7.7v15.5l-17.9,2.6v93.2l-17.1,2.5V37.9l-17.9,2.6V25z"/>
<g class="st3">
	<path class="st4" d="M16.9,297.5c-0.1-0.1-0.1-0.2-0.1-0.4v-15.7c0-0.2,0-0.3,0.1-0.4c0.1-0.1,0.2-0.2,0.4-0.2l5.4-0.8
		c2.4-0.4,4.2-0.1,5.2,0.9c1.1,0.9,1.6,2.5,1.7,4.6c0,0.5,0,1.1,0,1.9c0,0.8,0,1.4,0,1.9c0,1.5-0.3,2.8-0.7,3.8
		c-0.5,1-1.2,1.8-2.1,2.4c-1,0.6-2.3,1-3.9,1.3l-5.5,0.8C17.1,297.6,17,297.6,16.9,297.5z M22.7,294.8c1.1-0.2,2-0.4,2.7-0.9
		c0.7-0.4,1.1-1,1.4-1.7c0.3-0.7,0.5-1.6,0.5-2.8c0-1,0-1.6,0-1.8c0-0.3,0-0.8,0-1.8c0-1.6-0.4-2.7-1.1-3.3
		c-0.7-0.6-1.9-0.8-3.6-0.6l-3.6,0.5v12.8L22.7,294.8z"/>
	<path class="st4" d="M35.4,294.8c-0.1-0.1-0.1-0.2-0.1-0.4v-15.7c0-0.2,0-0.3,0.1-0.4c0.1-0.1,0.2-0.2,0.4-0.2l9.9-1.4
		c0.2,0,0.3,0,0.4,0.1c0.1,0.1,0.2,0.2,0.2,0.4v0.9c0,0.2-0.1,0.3-0.2,0.4c-0.1,0.1-0.2,0.2-0.4,0.2l-8.2,1.2v5.4l7.7-1.1
		c0.2,0,0.3,0,0.4,0.1c0.1,0.1,0.2,0.2,0.2,0.4v0.8c0,0.2-0.1,0.3-0.2,0.4c-0.1,0.1-0.2,0.2-0.4,0.2l-7.7,1.1v5.5l8.4-1.2
		c0.2,0,0.3,0,0.4,0.1c0.1,0.1,0.2,0.2,0.2,0.4v0.9c0,0.2-0.1,0.3-0.2,0.4c-0.1,0.1-0.2,0.2-0.4,0.2l-10.1,1.5
		C35.6,294.9,35.5,294.9,35.4,294.8z"/>
	<path class="st4" d="M51.8,292.4c-0.1-0.1-0.1-0.2-0.1-0.4v-15.7c0-0.2,0-0.3,0.1-0.4c0.1-0.1,0.2-0.2,0.4-0.2l1.1-0.2
		c0.2,0,0.3,0,0.4,0c0.1,0.1,0.2,0.1,0.2,0.2l8,11.2v-12.1c0-0.2,0.1-0.3,0.2-0.4c0.1-0.1,0.2-0.2,0.4-0.2l1.1-0.2
		c0.2,0,0.3,0,0.4,0.1c0.1,0.1,0.2,0.2,0.2,0.4v15.6c0,0.2-0.1,0.3-0.2,0.4c-0.1,0.1-0.2,0.2-0.4,0.2l-1.1,0.2c-0.3,0-0.5,0-0.6-0.3
		l-8-11.1v12c0,0.2-0.1,0.3-0.2,0.4c-0.1,0.1-0.2,0.2-0.4,0.2l-1.1,0.2C52.1,292.6,51.9,292.5,51.8,292.4z"/>
	<path class="st4" d="M78.3,288.6c-0.1-0.1-0.2-0.2-0.2-0.4v-15.7c0-0.2,0-0.3,0.1-0.4c0.1-0.1,0.2-0.2,0.4-0.2l1.1-0.2
		c0.3,0,0.5,0,0.6,0.3l5.1,9.1l5.2-10.6c0.1-0.3,0.3-0.4,0.6-0.4l1.1-0.2c0.2,0,0.3,0,0.4,0.1s0.1,0.2,0.1,0.4V286
		c0,0.2-0.1,0.3-0.2,0.4c-0.1,0.1-0.2,0.2-0.4,0.2l-1.1,0.2c-0.2,0-0.3,0-0.4-0.1s-0.1-0.2-0.1-0.4v-11.9l-4.1,8.5
		c-0.2,0.4-0.4,0.6-0.8,0.6l-0.7,0.1c-0.3,0-0.6-0.1-0.8-0.4l-4.1-7.4v11.9c0,0.2-0.1,0.3-0.2,0.4c-0.1,0.1-0.2,0.2-0.4,0.2
		l-1.1,0.2C78.6,288.7,78.4,288.7,78.3,288.6z"/>
	<path class="st4" d="M99.3,285.5c-0.1-0.1-0.1-0.2-0.1-0.4v-15.7c0-0.2,0-0.3,0.1-0.4c0.1-0.1,0.2-0.2,0.4-0.2l1.2-0.2
		c0.2,0,0.3,0,0.4,0.1c0.1,0.1,0.1,0.2,0.1,0.4v15.7c0,0.2-0.1,0.3-0.2,0.4c-0.1,0.1-0.2,0.2-0.4,0.2l-1.2,0.2
		C99.5,285.6,99.4,285.6,99.3,285.5z"/>
	<path class="st4" d="M109.6,283.8c-1-0.3-1.7-0.7-2.2-1.3c-0.5-0.6-0.8-1.3-0.8-2.1c0-0.1,0-0.2,0.1-0.4c0.1-0.1,0.2-0.2,0.4-0.2
		l1.2-0.2c0.3,0,0.5,0.1,0.6,0.4c0.1,0.7,0.6,1.2,1.2,1.6s1.7,0.5,2.9,0.3c1.4-0.2,2.4-0.6,3-1.2c0.7-0.6,1-1.3,1-2.1
		c0-0.5-0.2-1-0.5-1.3c-0.3-0.3-0.8-0.5-1.5-0.7c-0.6-0.2-1.6-0.4-2.9-0.5c-1.2-0.2-2.2-0.4-2.9-0.7c-0.7-0.3-1.3-0.7-1.6-1.2
		c-0.4-0.5-0.6-1.2-0.6-2.1c0-0.9,0.2-1.7,0.7-2.4c0.5-0.7,1.1-1.4,2-1.9c0.9-0.5,1.9-0.9,3.1-1c1.2-0.2,2.3-0.1,3.2,0.2
		c0.9,0.3,1.6,0.8,2,1.4c0.5,0.6,0.7,1.2,0.7,1.9c0,0.1,0,0.3-0.1,0.4c-0.1,0.1-0.2,0.2-0.4,0.2l-1.2,0.2c-0.1,0-0.2,0-0.4-0.1
		c-0.1-0.1-0.2-0.2-0.2-0.3c-0.1-0.7-0.5-1.2-1.2-1.5c-0.7-0.3-1.5-0.5-2.5-0.3c-1.1,0.2-2,0.5-2.6,1c-0.6,0.5-1,1.2-1,2
		c0,0.6,0.1,1,0.4,1.3c0.3,0.3,0.8,0.6,1.4,0.7c0.6,0.2,1.5,0.4,2.7,0.5c1.4,0.2,2.4,0.4,3.2,0.7c0.8,0.3,1.4,0.7,1.7,1.2
		s0.6,1.2,0.6,2.1c0,1.5-0.6,2.8-1.7,3.8c-1.1,1-2.7,1.7-4.6,1.9C111.7,284.1,110.5,284.1,109.6,283.8z"/>
	<path class="st4" d="M126.4,281.3c-1-0.3-1.7-0.7-2.2-1.3s-0.8-1.3-0.8-2.1c0-0.1,0-0.2,0.1-0.4c0.1-0.1,0.2-0.2,0.4-0.2l1.2-0.2
		c0.3,0,0.5,0.1,0.6,0.4c0.1,0.7,0.6,1.2,1.2,1.6c0.7,0.4,1.7,0.5,2.9,0.3c1.4-0.2,2.4-0.6,3-1.2c0.7-0.6,1-1.3,1-2.1
		c0-0.5-0.2-1-0.5-1.3c-0.3-0.3-0.8-0.5-1.5-0.7c-0.6-0.2-1.6-0.4-2.9-0.5c-1.2-0.2-2.2-0.4-2.9-0.7c-0.7-0.3-1.3-0.7-1.6-1.2
		c-0.4-0.5-0.6-1.2-0.6-2.1c0-0.9,0.2-1.7,0.7-2.4c0.5-0.7,1.1-1.4,2-1.9c0.9-0.5,1.9-0.9,3.1-1c1.2-0.2,2.3-0.1,3.2,0.2
		c0.9,0.3,1.6,0.8,2,1.4c0.5,0.6,0.7,1.2,0.7,1.9c0,0.1,0,0.3-0.1,0.4c-0.1,0.1-0.2,0.2-0.4,0.2l-1.2,0.2c-0.1,0-0.2,0-0.4-0.1
		c-0.1-0.1-0.2-0.2-0.2-0.3c-0.1-0.7-0.5-1.2-1.2-1.5c-0.7-0.3-1.5-0.5-2.5-0.3c-1.1,0.2-2,0.5-2.6,1s-1,1.2-1,2
		c0,0.6,0.1,1,0.4,1.3s0.8,0.6,1.4,0.7c0.6,0.2,1.5,0.4,2.7,0.5c1.4,0.2,2.4,0.4,3.2,0.7c0.8,0.3,1.4,0.7,1.7,1.2
		c0.4,0.5,0.6,1.2,0.6,2.1c0,1.5-0.6,2.8-1.7,3.8c-1.1,1-2.7,1.7-4.6,1.9C128.5,281.7,127.4,281.6,126.4,281.3z"/>
	<path class="st4" d="M141.5,279.4c-0.1-0.1-0.1-0.2-0.1-0.4v-15.7c0-0.2,0-0.3,0.1-0.4c0.1-0.1,0.2-0.2,0.4-0.2l9.7-1.4
		c0.2,0,0.3,0,0.4,0.1c0.1,0.1,0.2,0.2,0.2,0.4v0.9c0,0.2-0.1,0.3-0.2,0.4c-0.1,0.1-0.2,0.2-0.4,0.2l-8,1.2v5.7l7.6-1.1
		c0.2,0,0.3,0,0.4,0.1c0.1,0.1,0.2,0.2,0.2,0.4v0.9c0,0.2-0.1,0.3-0.2,0.4c-0.1,0.1-0.2,0.2-0.4,0.2l-7.6,1.1v6.5
		c0,0.2-0.1,0.3-0.2,0.4c-0.1,0.1-0.2,0.2-0.4,0.2l-1.1,0.2C141.7,279.5,141.6,279.5,141.5,279.4z"/>
	<path class="st4" d="M158.4,275.7c-1.1-0.9-1.7-2.5-1.8-4.7c0-0.5,0-1.2,0-2c0-0.9,0-1.6,0-2c0.1-2.2,0.7-3.9,1.9-5.2
		c1.2-1.3,2.8-2.1,4.8-2.4s3.6,0,4.8,1c1.2,1,1.8,2.5,1.8,4.7c0,0.9,0,1.6,0,2c0,0.4,0,1.1,0,2c-0.1,2.2-0.7,4-1.8,5.2
		c-1.1,1.3-2.7,2-4.8,2.3C161.1,276.9,159.5,276.6,158.4,275.7z M166.3,273c0.8-0.9,1.2-2.1,1.2-3.7c0-1,0-1.6,0-1.9
		c0-0.4,0-1,0-1.9c-0.1-1.6-0.5-2.7-1.2-3.4c-0.8-0.7-1.8-0.9-3.1-0.7c-1.3,0.2-2.3,0.7-3.1,1.6c-0.8,0.9-1.2,2.2-1.2,3.8
		c0,0.5,0,1.1,0,1.9c0,0.8,0,1.4,0,1.9c0,1.6,0.5,2.7,1.2,3.4c0.8,0.7,1.8,0.9,3.1,0.7C164.5,274.4,165.5,273.9,166.3,273z
		 M159.8,258.7c-0.1-0.1-0.1-0.2-0.1-0.4v-1.3c0-0.2,0-0.3,0.1-0.4c0.1-0.1,0.2-0.2,0.4-0.2l1.2-0.2c0.2,0,0.3,0,0.4,0.1
		c0.1,0.1,0.2,0.2,0.2,0.4v1.3c0,0.2-0.1,0.3-0.2,0.4s-0.2,0.2-0.4,0.2l-1.2,0.2C160,258.8,159.9,258.8,159.8,258.7z M164.5,258
		c-0.1-0.1-0.1-0.2-0.1-0.4v-1.3c0-0.2,0-0.3,0.1-0.4c0.1-0.1,0.2-0.2,0.4-0.2l1.3-0.2c0.2,0,0.3,0,0.4,0.1c0.1,0.1,0.2,0.2,0.2,0.4
		v1.3c0,0.2-0.1,0.3-0.2,0.4c-0.1,0.1-0.2,0.2-0.4,0.2l-1.3,0.2C164.7,258.2,164.6,258.1,164.5,258z"/>
	<path class="st4" d="M175.5,274.4c-0.1-0.1-0.1-0.2-0.1-0.4v-15.7c0-0.2,0-0.3,0.1-0.4s0.2-0.2,0.4-0.2l5.9-0.9
		c1.8-0.3,3.3,0,4.3,0.7c1,0.7,1.5,1.9,1.5,3.5c0,1.2-0.3,2.3-0.9,3.1c-0.6,0.9-1.5,1.5-2.5,2l3.7,5.9c0,0.1,0.1,0.2,0.1,0.3
		c0,0.1,0,0.2-0.1,0.4c-0.1,0.1-0.2,0.2-0.3,0.2l-1.1,0.2c-0.2,0-0.4,0-0.6-0.1s-0.3-0.2-0.4-0.4l-3.5-5.6l-4.3,0.6v6.2
		c0,0.2-0.1,0.3-0.2,0.4c-0.1,0.1-0.2,0.2-0.4,0.2l-1.2,0.2C175.7,274.6,175.6,274.5,175.5,274.4z M181.6,264.9
		c2.4-0.4,3.6-1.5,3.6-3.6c0-2-1.2-2.9-3.6-2.5l-4,0.6v6.1L181.6,264.9z"/>
	<path class="st4" d="M194.9,271.4c-1-0.3-1.7-0.7-2.2-1.3s-0.8-1.3-0.8-2.1c0-0.1,0-0.2,0.1-0.4c0.1-0.1,0.2-0.2,0.4-0.2l1.2-0.2
		c0.3,0,0.5,0.1,0.6,0.4c0.1,0.7,0.6,1.2,1.2,1.6c0.7,0.4,1.7,0.5,2.9,0.3c1.4-0.2,2.4-0.6,3-1.2c0.7-0.6,1-1.3,1-2.1
		c0-0.5-0.2-1-0.5-1.3c-0.3-0.3-0.8-0.5-1.5-0.7s-1.6-0.4-2.9-0.5c-1.2-0.2-2.2-0.4-2.9-0.7c-0.7-0.3-1.3-0.7-1.6-1.2
		c-0.4-0.5-0.6-1.2-0.6-2.1c0-0.9,0.2-1.7,0.7-2.4c0.5-0.7,1.1-1.4,2-1.9c0.9-0.5,1.9-0.9,3.1-1c1.2-0.2,2.3-0.1,3.2,0.2
		c0.9,0.3,1.6,0.8,2,1.4c0.5,0.6,0.7,1.2,0.7,1.9c0,0.1,0,0.3-0.1,0.4c-0.1,0.1-0.2,0.2-0.4,0.2l-1.2,0.2c-0.1,0-0.2,0-0.4-0.1
		c-0.1-0.1-0.2-0.2-0.2-0.3c-0.1-0.7-0.5-1.2-1.2-1.5c-0.7-0.3-1.5-0.5-2.5-0.3c-1.1,0.2-2,0.5-2.6,1c-0.6,0.5-1,1.2-1,2
		c0,0.6,0.1,1,0.4,1.3s0.8,0.6,1.4,0.7c0.6,0.2,1.5,0.4,2.7,0.5c1.4,0.2,2.4,0.4,3.2,0.7c0.8,0.3,1.4,0.7,1.7,1.2
		c0.4,0.5,0.6,1.2,0.6,2.1c0,1.5-0.6,2.8-1.7,3.8c-1.1,1-2.7,1.7-4.6,1.9C197.1,271.7,195.9,271.7,194.9,271.4z"/>
	<path class="st4" d="M213.5,268.9c-0.1-0.1-0.2-0.2-0.2-0.4v-14.2l-4.6,0.7c-0.2,0-0.3,0-0.4-0.1c-0.1-0.1-0.2-0.2-0.2-0.4v-0.9
		c0-0.2,0.1-0.3,0.2-0.4c0.1-0.1,0.2-0.2,0.4-0.2l11.5-1.7c0.2,0,0.3,0,0.4,0.1s0.1,0.2,0.1,0.4v0.9c0,0.2-0.1,0.3-0.2,0.4
		c-0.1,0.1-0.2,0.2-0.4,0.2l-4.6,0.7v14.2c0,0.2-0.1,0.3-0.2,0.4c-0.1,0.1-0.2,0.2-0.4,0.2l-1.2,0.2
		C213.7,269,213.6,269,213.5,268.9z"/>
	<path class="st4" d="M222.2,267.7c-0.1-0.1-0.1-0.2-0.1-0.3l0-0.3l6-16.4c0.1-0.4,0.4-0.6,0.8-0.6l1.5-0.2c0.4-0.1,0.6,0.1,0.8,0.4
		l6,14.7l0,0.3c0,0.1-0.1,0.2-0.2,0.4c-0.1,0.1-0.2,0.2-0.3,0.2l-1.1,0.2c-0.2,0-0.3,0-0.4-0.1c-0.1-0.1-0.2-0.2-0.2-0.2l-1.3-3.3
		l-7.9,1.2l-1.3,3.6c-0.1,0.3-0.3,0.5-0.6,0.5l-1.2,0.2C222.4,267.8,222.3,267.7,222.2,267.7z M226.3,261.3l6.6-1l-3.3-8.1
		L226.3,261.3z M228.2,248.6c-0.4-0.3-0.6-0.7-0.6-1.2c0-0.5,0.2-1,0.6-1.4c0.4-0.4,0.9-0.7,1.4-0.7c0.6-0.1,1,0,1.4,0.3
		c0.4,0.3,0.6,0.7,0.6,1.3c0,0.5-0.2,1-0.6,1.4c-0.4,0.4-0.9,0.7-1.4,0.7C229.1,249,228.6,248.9,228.2,248.6z M230.1,247.5
		c0.1-0.2,0.2-0.3,0.2-0.5c0-0.2-0.1-0.4-0.2-0.5c-0.1-0.1-0.3-0.2-0.5-0.1c-0.2,0-0.4,0.1-0.5,0.3c-0.1,0.2-0.2,0.3-0.2,0.5
		c0,0.2,0.1,0.4,0.2,0.5c0.1,0.1,0.3,0.2,0.5,0.1C229.8,247.8,230,247.7,230.1,247.5z"/>
	<path class="st4" d="M241.9,264.8c-0.1-0.1-0.1-0.2-0.1-0.4v-15.7c0-0.2,0-0.3,0.1-0.4c0.1-0.1,0.2-0.2,0.4-0.2l5.4-0.8
		c2.4-0.3,4.2-0.1,5.2,0.9c1.1,0.9,1.6,2.5,1.7,4.6c0,0.5,0,1.1,0,1.9c0,0.8,0,1.4,0,1.9c0,1.5-0.3,2.8-0.7,3.8
		c-0.5,1-1.2,1.8-2.1,2.4c-1,0.6-2.3,1-3.9,1.3l-5.5,0.8C242.1,264.9,241.9,264.9,241.9,264.8z M247.7,262.1c1.1-0.2,2-0.4,2.7-0.9
		s1.1-1,1.4-1.7s0.5-1.6,0.5-2.8c0-1,0-1.6,0-1.8c0-0.3,0-0.8,0-1.8c0-1.6-0.4-2.7-1.1-3.3s-1.9-0.8-3.6-0.6l-3.6,0.5v12.8
		L247.7,262.1z"/>
	<path class="st4" d="M260.3,262.1c-0.1-0.1-0.1-0.2-0.1-0.4V246c0-0.2,0-0.3,0.1-0.4c0.1-0.1,0.2-0.2,0.4-0.2l5.4-0.8
		c2.4-0.4,4.2-0.1,5.2,0.9s1.6,2.5,1.7,4.6c0,0.5,0,1.1,0,1.9c0,0.8,0,1.4,0,1.9c0,1.5-0.3,2.8-0.7,3.8c-0.5,1-1.2,1.8-2.1,2.4
		c-1,0.6-2.3,1-3.9,1.3l-5.5,0.8C260.6,262.2,260.4,262.2,260.3,262.1z M266.1,259.4c1.1-0.2,2-0.4,2.7-0.9c0.7-0.4,1.1-1,1.4-1.7
		c0.3-0.7,0.5-1.6,0.5-2.8c0-1,0-1.6,0-1.8c0-0.3,0-0.8,0-1.8c0-1.6-0.4-2.7-1.1-3.3c-0.7-0.6-1.9-0.8-3.6-0.6l-3.6,0.5V260
		L266.1,259.4z"/>
	<path class="st4" d="M276.9,259.7c-0.1-0.1-0.1-0.2-0.1-0.3l0-0.3l6-16.4c0.1-0.4,0.4-0.6,0.8-0.6l1.5-0.2c0.4-0.1,0.6,0.1,0.8,0.4
		l6,14.7l0,0.3c0,0.1-0.1,0.2-0.2,0.4c-0.1,0.1-0.2,0.2-0.3,0.2l-1.1,0.2c-0.2,0-0.3,0-0.4-0.1s-0.2-0.2-0.2-0.2l-1.3-3.3l-7.9,1.2
		l-1.3,3.6c-0.1,0.3-0.3,0.5-0.6,0.5l-1.2,0.2C277.1,259.8,277,259.8,276.9,259.7z M281,253.4l6.6-1l-3.3-8.1L281,253.4z"/>
	<path class="st4" d="M304.8,254.4c-1.1-0.9-1.7-2.5-1.8-4.7c0-0.5,0-1.2,0-2c0-0.9,0-1.6,0-2c0.1-2.2,0.7-3.9,1.9-5.2
		c1.2-1.3,2.8-2.1,4.8-2.4s3.6,0,4.8,1c1.2,1,1.8,2.5,1.8,4.7c0,0.9,0,1.6,0,2c0,0.4,0,1.1,0,2c-0.1,2.2-0.7,4-1.8,5.2
		c-1.1,1.3-2.7,2-4.8,2.3C307.5,255.6,305.9,255.3,304.8,254.4z M312.7,251.7c0.8-0.9,1.2-2.1,1.2-3.7c0-1,0-1.6,0-1.9
		c0-0.4,0-1,0-1.9c-0.1-1.6-0.5-2.7-1.2-3.4c-0.8-0.7-1.8-0.9-3.1-0.7c-1.3,0.2-2.3,0.7-3.1,1.6c-0.8,0.9-1.2,2.1-1.2,3.8
		c0,0.5,0,1.1,0,1.9c0,0.8,0,1.4,0,1.9c0,1.6,0.5,2.7,1.2,3.4c0.8,0.7,1.8,0.9,3.1,0.7C310.9,253.1,311.9,252.6,312.7,251.7z"/>
	<path class="st4" d="M321.9,253.1c-0.1-0.1-0.1-0.2-0.1-0.4v-15.7c0-0.2,0-0.3,0.1-0.4s0.2-0.2,0.4-0.2l9.7-1.4
		c0.2,0,0.3,0,0.4,0.1c0.1,0.1,0.2,0.2,0.2,0.4v0.9c0,0.2-0.1,0.3-0.2,0.4s-0.2,0.2-0.4,0.2l-8,1.2v5.7l7.6-1.1c0.2,0,0.3,0,0.4,0.1
		c0.1,0.1,0.2,0.2,0.2,0.4v0.9c0,0.2-0.1,0.3-0.2,0.4c-0.1,0.1-0.2,0.2-0.4,0.2l-7.6,1.1v6.5c0,0.2-0.1,0.3-0.2,0.4
		c-0.1,0.1-0.2,0.2-0.4,0.2l-1.1,0.2C322.1,253.3,322,253.2,321.9,253.1z"/>
	<path class="st4" d="M338.8,249.4c-1.1-0.9-1.7-2.5-1.8-4.7c0-0.5,0-1.2,0-2c0-0.9,0-1.6,0-2c0.1-2.2,0.7-3.9,1.9-5.2
		c1.2-1.3,2.8-2.1,4.8-2.4s3.6,0,4.8,1c1.2,1,1.8,2.5,1.8,4.7c0,0.9,0,1.6,0,2c0,0.4,0,1.1,0,2c-0.1,2.2-0.7,4-1.8,5.2
		c-1.1,1.3-2.7,2-4.8,2.3C341.5,250.7,339.9,250.4,338.8,249.4z M346.7,246.8c0.8-0.9,1.2-2.1,1.2-3.7c0-1,0-1.6,0-1.9
		c0-0.4,0-1,0-1.9c-0.1-1.6-0.5-2.7-1.2-3.4c-0.8-0.7-1.8-0.9-3.1-0.7c-1.3,0.2-2.3,0.7-3.1,1.6c-0.8,0.9-1.2,2.2-1.2,3.8
		c0,0.5,0,1.1,0,1.9c0,0.8,0,1.4,0,1.9c0,1.6,0.5,2.7,1.2,3.4c0.8,0.7,1.8,0.9,3.1,0.7C344.9,248.2,345.9,247.7,346.7,246.8z
		 M340.2,232.5c-0.1-0.1-0.1-0.2-0.1-0.4v-1.3c0-0.2,0-0.3,0.1-0.4c0.1-0.1,0.2-0.2,0.4-0.2l1.2-0.2c0.2,0,0.3,0,0.4,0.1
		c0.1,0.1,0.2,0.2,0.2,0.4v1.3c0,0.2-0.1,0.3-0.2,0.4c-0.1,0.1-0.2,0.2-0.4,0.2l-1.2,0.2C340.5,232.6,340.3,232.6,340.2,232.5z
		 M345,231.8c-0.1-0.1-0.1-0.2-0.1-0.4v-1.3c0-0.2,0-0.3,0.1-0.4c0.1-0.1,0.2-0.2,0.4-0.2l1.3-0.2c0.2,0,0.3,0,0.4,0.1
		c0.1,0.1,0.2,0.2,0.2,0.4v1.3c0,0.2-0.1,0.3-0.2,0.4c-0.1,0.1-0.2,0.2-0.4,0.2l-1.3,0.2C345.2,231.9,345.1,231.9,345,231.8z"/>
	<path class="st4" d="M355.9,248.2c-0.1-0.1-0.1-0.2-0.1-0.4v-15.7c0-0.2,0-0.3,0.1-0.4c0.1-0.1,0.2-0.2,0.4-0.2l5.9-0.9
		c1.8-0.3,3.3,0,4.3,0.7c1,0.7,1.5,1.9,1.5,3.5c0,1.2-0.3,2.3-0.9,3.1c-0.6,0.9-1.5,1.5-2.5,2l3.7,5.9c0,0.1,0.1,0.2,0.1,0.3
		c0,0.1,0,0.2-0.1,0.4c-0.1,0.1-0.2,0.2-0.3,0.2l-1.1,0.2c-0.2,0-0.4,0-0.6-0.1s-0.3-0.2-0.4-0.4l-3.5-5.6l-4.3,0.6v6.2
		c0,0.2-0.1,0.3-0.2,0.4c-0.1,0.1-0.2,0.2-0.4,0.2l-1.2,0.2C356.1,248.3,356,248.3,355.9,248.2z M362.1,238.7
		c2.4-0.4,3.6-1.5,3.6-3.6c0-2-1.2-2.9-3.6-2.5l-4,0.6v6.1L362.1,238.7z"/>
	<path class="st4" d="M373.6,245.6c-0.1-0.1-0.2-0.2-0.2-0.4v-15.7c0-0.2,0-0.3,0.1-0.4c0.1-0.1,0.2-0.2,0.4-0.2l1.1-0.2
		c0.3,0,0.5,0,0.6,0.3l5.1,9.1l5.2-10.6c0.1-0.3,0.3-0.4,0.6-0.4l1.1-0.2c0.2,0,0.3,0,0.4,0.1c0.1,0.1,0.1,0.2,0.1,0.4v15.7
		c0,0.2-0.1,0.3-0.2,0.4c-0.1,0.1-0.2,0.2-0.4,0.2l-1.1,0.2c-0.2,0-0.3,0-0.4-0.1c-0.1-0.1-0.1-0.2-0.1-0.4v-11.9L382,240
		c-0.2,0.4-0.4,0.6-0.8,0.6l-0.7,0.1c-0.3,0-0.6-0.1-0.8-0.4l-4.1-7.3v11.9c0,0.2-0.1,0.3-0.2,0.4c-0.1,0.1-0.2,0.2-0.4,0.2
		l-1.1,0.2C373.8,245.7,373.7,245.7,373.6,245.6z"/>
	<path class="st4" d="M393,242.8c-0.1-0.1-0.1-0.2-0.1-0.3l0-0.3l6-16.4c0.1-0.4,0.4-0.6,0.8-0.6l1.5-0.2c0.4-0.1,0.6,0.1,0.8,0.4
		l6,14.7l0,0.3c0,0.1-0.1,0.2-0.2,0.4c-0.1,0.1-0.2,0.2-0.3,0.2l-1.1,0.2c-0.2,0-0.3,0-0.4-0.1c-0.1-0.1-0.2-0.2-0.2-0.2l-1.3-3.3
		l-7.9,1.2l-1.3,3.6c-0.1,0.3-0.3,0.5-0.6,0.5l-1.2,0.2C393.2,242.9,393.1,242.9,393,242.8z M397.1,236.5l6.6-1l-3.3-8.1
		L397.1,236.5z M398.9,223.8c-0.4-0.3-0.6-0.7-0.6-1.2c0-0.5,0.2-1,0.6-1.4s0.9-0.7,1.4-0.7c0.6-0.1,1,0,1.4,0.3
		c0.4,0.3,0.6,0.7,0.6,1.3c0,0.5-0.2,1-0.6,1.4c-0.4,0.4-0.9,0.7-1.4,0.7C399.8,224.2,399.3,224.1,398.9,223.8z M400.9,222.7
		c0.1-0.2,0.2-0.3,0.2-0.5c0-0.2-0.1-0.4-0.2-0.5c-0.1-0.1-0.3-0.2-0.5-0.1c-0.2,0-0.4,0.1-0.5,0.3c-0.1,0.2-0.2,0.3-0.2,0.5
		c0,0.2,0.1,0.4,0.2,0.5c0.1,0.1,0.3,0.2,0.5,0.1C400.6,222.9,400.7,222.8,400.9,222.7z"/>
	<path class="st4" d="M413.4,238.5c-1.2-1-1.8-2.5-1.8-4.4c0-0.5,0-1.2,0-2.3c0-1,0-1.8,0-2.3c0.1-2,0.7-3.6,1.8-4.9
		c1.2-1.3,2.8-2.1,4.9-2.4c1.4-0.2,2.6-0.1,3.6,0.2c1,0.4,1.7,0.9,2.2,1.5c0.5,0.6,0.8,1.3,0.8,1.9v0c0,0.1-0.1,0.2-0.2,0.3
		c-0.1,0.1-0.2,0.2-0.3,0.2l-1.3,0.2c-0.1,0-0.3,0-0.3,0c-0.1-0.1-0.1-0.2-0.2-0.3c-0.3-0.7-0.7-1.3-1.4-1.7
		c-0.7-0.4-1.6-0.5-2.8-0.4c-1.3,0.2-2.4,0.7-3.2,1.6c-0.8,0.8-1.2,2-1.2,3.6c0,0.5,0,1.2,0,2.1c0,0.9,0,1.7,0,2.1
		c0,1.5,0.5,2.6,1.2,3.3c0.8,0.6,1.8,0.8,3.2,0.6c1.4-0.2,2.4-0.7,3.3-1.6c0.8-0.9,1.2-2,1.2-3.5v-1l-3.7,0.5c-0.2,0-0.3,0-0.4-0.1
		c-0.1-0.1-0.2-0.2-0.2-0.4v-0.7c0-0.2,0.1-0.3,0.2-0.4c0.1-0.1,0.2-0.2,0.4-0.2l5.4-0.8c0.2,0,0.3,0,0.4,0.1
		c0.1,0.1,0.2,0.2,0.2,0.4v2.3c0,1.3-0.3,2.5-0.8,3.5s-1.3,1.9-2.3,2.6c-1,0.7-2.2,1.1-3.6,1.3C416.1,239.8,414.5,239.5,413.4,238.5
		z"/>
	<path class="st4" d="M428.6,237.6c-0.1-0.1-0.1-0.2-0.1-0.3l0-0.3l6-16.4c0.1-0.4,0.4-0.6,0.8-0.6l1.5-0.2c0.4-0.1,0.6,0.1,0.8,0.4
		l6,14.7l0,0.3c0,0.1-0.1,0.2-0.2,0.4c-0.1,0.1-0.2,0.2-0.3,0.2l-1.1,0.2c-0.2,0-0.3,0-0.4-0.1c-0.1-0.1-0.2-0.2-0.2-0.2l-1.3-3.3
		l-7.9,1.2l-1.3,3.6c-0.1,0.3-0.3,0.5-0.6,0.5l-1.2,0.2C428.8,237.7,428.7,237.7,428.6,237.6z M432.7,231.3l6.6-1l-3.3-8.1
		L432.7,231.3z"/>
	<path class="st4" d="M448.2,234.8c-0.1-0.1-0.1-0.2-0.1-0.4v-15.7c0-0.2,0-0.3,0.1-0.4c0.1-0.1,0.2-0.2,0.4-0.2l1.1-0.2
		c0.2,0,0.3,0,0.4,0c0.1,0.1,0.2,0.1,0.2,0.2l8,11.2v-12.1c0-0.2,0.1-0.3,0.2-0.4c0.1-0.1,0.2-0.2,0.4-0.2l1.1-0.2
		c0.2,0,0.3,0,0.4,0.1c0.1,0.1,0.2,0.2,0.2,0.4v15.6c0,0.2-0.1,0.3-0.2,0.4c-0.1,0.1-0.2,0.2-0.4,0.2l-1.1,0.2c-0.3,0-0.5,0-0.6-0.3
		l-8-11.1v12c0,0.2-0.1,0.3-0.2,0.4c-0.1,0.1-0.2,0.2-0.4,0.2l-1.1,0.2C448.4,234.9,448.3,234.9,448.2,234.8z"/>
	<path class="st4" d="M472.4,231.3c-0.1-0.1-0.1-0.2-0.1-0.3l0-0.3l6-16.4c0.1-0.4,0.4-0.6,0.8-0.6l1.5-0.2c0.4-0.1,0.6,0.1,0.8,0.4
		l6,14.7l0,0.3c0,0.1-0.1,0.2-0.2,0.4c-0.1,0.1-0.2,0.2-0.3,0.2l-1.1,0.2c-0.2,0-0.3,0-0.4-0.1c-0.1-0.1-0.2-0.2-0.2-0.2l-1.3-3.3
		l-7.9,1.2l-1.3,3.6c-0.1,0.3-0.3,0.5-0.6,0.5l-1.2,0.2C472.6,231.4,472.5,231.3,472.4,231.3z M476.5,224.9l6.6-1l-3.3-8.1
		L476.5,224.9z"/>
	<path class="st4" d="M493.9,228.1c-0.1-0.1-0.2-0.2-0.2-0.4v-14.2l-4.6,0.7c-0.2,0-0.3,0-0.4-0.1c-0.1-0.1-0.2-0.2-0.2-0.4v-0.9
		c0-0.2,0.1-0.3,0.2-0.4c0.1-0.1,0.2-0.2,0.4-0.2l11.5-1.7c0.2,0,0.3,0,0.4,0.1c0.1,0.1,0.1,0.2,0.1,0.4v0.9c0,0.2-0.1,0.3-0.2,0.4
		c-0.1,0.1-0.2,0.2-0.4,0.2l-4.6,0.7v14.2c0,0.2-0.1,0.3-0.2,0.4s-0.2,0.2-0.4,0.2l-1.2,0.2C494.2,228.2,494,228.2,493.9,228.1z"/>
	<path class="st4" d="M509.8,225.8c-0.1-0.1-0.2-0.2-0.2-0.4v-14.2l-4.6,0.7c-0.2,0-0.3,0-0.4-0.1c-0.1-0.1-0.2-0.2-0.2-0.4v-0.9
		c0-0.2,0.1-0.3,0.2-0.4c0.1-0.1,0.2-0.2,0.4-0.2l11.5-1.7c0.2,0,0.3,0,0.4,0.1c0.1,0.1,0.1,0.2,0.1,0.4v0.9c0,0.2-0.1,0.3-0.2,0.4
		c-0.1,0.1-0.2,0.2-0.4,0.2l-4.6,0.7v14.2c0,0.2-0.1,0.3-0.2,0.4c-0.1,0.1-0.2,0.2-0.4,0.2l-1.2,0.2
		C510,225.9,509.9,225.9,509.8,225.8z"/>
	<path class="st4" d="M530.9,222.5c-1-0.3-1.7-0.7-2.2-1.3c-0.5-0.6-0.8-1.3-0.8-2.1c0-0.1,0-0.2,0.1-0.4c0.1-0.1,0.2-0.2,0.4-0.2
		l1.2-0.2c0.3,0,0.5,0.1,0.6,0.4c0.1,0.7,0.6,1.2,1.2,1.6s1.7,0.5,2.9,0.3c1.4-0.2,2.4-0.6,3-1.2c0.7-0.6,1-1.3,1-2.1
		c0-0.5-0.2-1-0.5-1.3c-0.3-0.3-0.8-0.5-1.5-0.7c-0.6-0.2-1.6-0.4-2.9-0.5c-1.2-0.2-2.2-0.4-2.9-0.7c-0.7-0.3-1.3-0.7-1.6-1.2
		s-0.6-1.2-0.6-2.1c0-0.9,0.2-1.7,0.7-2.4c0.5-0.7,1.1-1.4,2-1.9c0.9-0.5,1.9-0.9,3.1-1c1.2-0.2,2.3-0.1,3.2,0.2
		c0.9,0.3,1.6,0.8,2,1.4c0.5,0.6,0.7,1.2,0.7,1.9c0,0.1,0,0.3-0.1,0.4c-0.1,0.1-0.2,0.2-0.4,0.2l-1.2,0.2c-0.1,0-0.2,0-0.4-0.1
		c-0.1-0.1-0.2-0.2-0.2-0.3c-0.1-0.7-0.5-1.2-1.2-1.5c-0.7-0.3-1.5-0.5-2.5-0.3c-1.1,0.2-2,0.5-2.6,1c-0.6,0.5-1,1.2-1,2
		c0,0.6,0.1,1,0.4,1.3s0.8,0.6,1.4,0.7c0.6,0.2,1.5,0.4,2.7,0.5c1.4,0.2,2.4,0.4,3.2,0.7c0.8,0.3,1.4,0.7,1.7,1.2s0.6,1.2,0.6,2.1
		c0,1.5-0.6,2.8-1.7,3.8c-1.1,1-2.7,1.7-4.6,1.9C533.1,222.8,531.9,222.8,530.9,222.5z"/>
	<path class="st4" d="M546,220.5c-0.1-0.1-0.1-0.2-0.1-0.4v-15.7c0-0.2,0-0.3,0.1-0.4c0.1-0.1,0.2-0.2,0.4-0.2l9.9-1.4
		c0.2,0,0.3,0,0.4,0.1c0.1,0.1,0.2,0.2,0.2,0.4v0.9c0,0.2-0.1,0.3-0.2,0.4c-0.1,0.1-0.2,0.2-0.4,0.2l-8.2,1.2v5.4l7.7-1.1
		c0.2,0,0.3,0,0.4,0.1s0.2,0.2,0.2,0.4v0.8c0,0.2-0.1,0.3-0.2,0.4s-0.2,0.2-0.4,0.2l-7.7,1.1v5.5l8.4-1.2c0.2,0,0.3,0,0.4,0.1
		c0.1,0.1,0.2,0.2,0.2,0.4v0.9c0,0.2-0.1,0.3-0.2,0.4c-0.1,0.1-0.2,0.2-0.4,0.2l-10.1,1.5C546.2,220.7,546.1,220.6,546,220.5z"/>
	<path class="st4" d="M570.4,217c-0.1-0.1-0.1-0.2-0.1-0.4v-15.7c0-0.2,0-0.3,0.1-0.4c0.1-0.1,0.2-0.2,0.4-0.2l5.9-0.9
		c1.8-0.3,3.3,0,4.3,0.7c1,0.7,1.5,1.9,1.5,3.5c0,1.2-0.3,2.3-0.9,3.1c-0.6,0.9-1.5,1.5-2.5,2l3.7,5.9c0,0.1,0.1,0.2,0.1,0.3
		c0,0.1,0,0.2-0.1,0.4c-0.1,0.1-0.2,0.2-0.3,0.2l-1.1,0.2c-0.2,0-0.4,0-0.6-0.1c-0.1-0.1-0.3-0.2-0.4-0.4l-3.5-5.6l-4.3,0.6v6.2
		c0,0.2-0.1,0.3-0.2,0.4c-0.1,0.1-0.2,0.2-0.4,0.2l-1.2,0.2C570.6,217.1,570.5,217.1,570.4,217z M576.5,207.5
		c2.4-0.4,3.6-1.5,3.6-3.6c0-2-1.2-2.9-3.6-2.5l-4,0.6v6.1L576.5,207.5z"/>
	<path class="st4" d="M586.4,214.7c-0.1-0.1-0.1-0.2-0.1-0.3l0-0.3l6-16.4c0.1-0.4,0.4-0.6,0.8-0.6l1.5-0.2c0.4-0.1,0.6,0.1,0.8,0.4
		l6,14.7l0,0.3c0,0.1-0.1,0.2-0.2,0.4c-0.1,0.1-0.2,0.2-0.3,0.2l-1.1,0.2c-0.2,0-0.3,0-0.4-0.1c-0.1-0.1-0.2-0.2-0.2-0.2l-1.3-3.3
		l-7.9,1.2l-1.3,3.6c-0.1,0.3-0.3,0.5-0.6,0.5l-1.2,0.2C586.6,214.8,586.5,214.8,586.4,214.7z M590.4,196.1
		c-0.1-0.1-0.1-0.2-0.1-0.4v-1.3c0-0.2,0-0.3,0.1-0.4c0.1-0.1,0.2-0.2,0.4-0.2l1.2-0.2c0.2,0,0.3,0,0.4,0.1c0.1,0.1,0.2,0.2,0.2,0.4
		v1.3c0,0.2-0.1,0.3-0.2,0.4c-0.1,0.1-0.2,0.2-0.4,0.2l-1.2,0.2C590.6,196.2,590.5,196.2,590.4,196.1z M590.5,208.4l6.6-1l-3.3-8.1
		L590.5,208.4z M595.1,195.4c-0.1-0.1-0.1-0.2-0.1-0.4v-1.3c0-0.2,0-0.3,0.1-0.4c0.1-0.1,0.2-0.2,0.4-0.2l1.3-0.2
		c0.2,0,0.3,0,0.4,0.1c0.1,0.1,0.2,0.2,0.2,0.4v1.3c0,0.2-0.1,0.3-0.2,0.4s-0.2,0.2-0.4,0.2l-1.3,0.2
		C595.4,195.5,595.2,195.5,595.1,195.4z"/>
	<path class="st4" d="M607.9,211.5c-0.1-0.1-0.2-0.2-0.2-0.4V197l-4.6,0.7c-0.2,0-0.3,0-0.4-0.1c-0.1-0.1-0.2-0.2-0.2-0.4v-0.9
		c0-0.2,0.1-0.3,0.2-0.4c0.1-0.1,0.2-0.2,0.4-0.2l11.5-1.7c0.2,0,0.3,0,0.4,0.1c0.1,0.1,0.1,0.2,0.1,0.4v0.9c0,0.2-0.1,0.3-0.2,0.4
		s-0.2,0.2-0.4,0.2l-4.6,0.7v14.2c0,0.2-0.1,0.3-0.2,0.4c-0.1,0.1-0.2,0.2-0.4,0.2l-1.2,0.2C608.2,211.6,608,211.6,607.9,211.5z"/>
	<path class="st4" d="M623.8,209.2c-0.1-0.1-0.2-0.2-0.2-0.4v-14.2l-4.6,0.7c-0.2,0-0.3,0-0.4-0.1c-0.1-0.1-0.2-0.2-0.2-0.4v-0.9
		c0-0.2,0.1-0.3,0.2-0.4c0.1-0.1,0.2-0.2,0.4-0.2l11.5-1.7c0.2,0,0.3,0,0.4,0.1c0.1,0.1,0.1,0.2,0.1,0.4v0.9c0,0.2-0.1,0.3-0.2,0.4
		s-0.2,0.2-0.4,0.2l-4.6,0.7v14.2c0,0.2-0.1,0.3-0.2,0.4c-0.1,0.1-0.2,0.2-0.4,0.2l-1.2,0.2C624,209.3,623.9,209.3,623.8,209.2z"/>
	<path class="st4" d="M643.2,206.4c-0.1-0.1-0.1-0.2-0.1-0.4v-15.7c0-0.2,0-0.3,0.1-0.4s0.2-0.2,0.4-0.2l9.7-1.4
		c0.2,0,0.3,0,0.4,0.1c0.1,0.1,0.2,0.2,0.2,0.4v0.9c0,0.2-0.1,0.3-0.2,0.4s-0.2,0.2-0.4,0.2l-8,1.2v5.7l7.6-1.1c0.2,0,0.3,0,0.4,0.1
		c0.1,0.1,0.2,0.2,0.2,0.4v0.9c0,0.2-0.1,0.3-0.2,0.4c-0.1,0.1-0.2,0.2-0.4,0.2l-7.6,1.1v6.5c0,0.2-0.1,0.3-0.2,0.4
		c-0.1,0.1-0.2,0.2-0.4,0.2l-1.1,0.2C643.4,206.5,643.2,206.5,643.2,206.4z"/>
	<path class="st4" d="M656.4,204.5c-0.1-0.1-0.1-0.2-0.1-0.3l0-0.3l6-16.4c0.1-0.4,0.4-0.6,0.8-0.6l1.5-0.2c0.4-0.1,0.6,0.1,0.8,0.4
		l6,14.7l0,0.3c0,0.1-0.1,0.2-0.2,0.4c-0.1,0.1-0.2,0.2-0.3,0.2l-1.1,0.2c-0.2,0-0.3,0-0.4-0.1s-0.2-0.2-0.2-0.2l-1.3-3.3l-7.9,1.2
		l-1.3,3.6c-0.1,0.3-0.3,0.5-0.6,0.5l-1.2,0.2C656.6,204.6,656.5,204.6,656.4,204.5z M660.4,185.9c-0.1-0.1-0.1-0.2-0.1-0.4v-1.3
		c0-0.2,0-0.3,0.1-0.4c0.1-0.1,0.2-0.2,0.4-0.2l1.2-0.2c0.2,0,0.3,0,0.4,0.1c0.1,0.1,0.2,0.2,0.2,0.4v1.3c0,0.2-0.1,0.3-0.2,0.4
		c-0.1,0.1-0.2,0.2-0.4,0.2l-1.2,0.2C660.7,186,660.5,186,660.4,185.9z M660.5,198.2l6.6-1l-3.3-8.1L660.5,198.2z M665.2,185.2
		c-0.1-0.1-0.1-0.2-0.1-0.4v-1.3c0-0.2,0-0.3,0.1-0.4c0.1-0.1,0.2-0.2,0.4-0.2l1.3-0.2c0.2,0,0.3,0,0.4,0.1c0.1,0.1,0.2,0.2,0.2,0.4
		v1.3c0,0.2-0.1,0.3-0.2,0.4c-0.1,0.1-0.2,0.2-0.4,0.2l-1.3,0.2C665.4,185.3,665.3,185.3,665.2,185.2z"/>
	<path class="st4" d="M676.1,201.6c-0.1-0.1-0.1-0.2-0.1-0.4v-15.7c0-0.2,0-0.3,0.1-0.4c0.1-0.1,0.2-0.2,0.4-0.2l5.9-0.9
		c1.8-0.3,3.3,0,4.3,0.7c1,0.7,1.5,1.9,1.5,3.5c0,1.2-0.3,2.3-0.9,3.1c-0.6,0.9-1.5,1.5-2.5,2l3.7,5.9c0,0.1,0.1,0.2,0.1,0.3
		c0,0.1,0,0.2-0.1,0.4c-0.1,0.1-0.2,0.2-0.3,0.2l-1.1,0.2c-0.2,0-0.4,0-0.6-0.1c-0.1-0.1-0.3-0.2-0.4-0.4l-3.5-5.6l-4.3,0.6v6.2
		c0,0.2-0.1,0.3-0.2,0.4c-0.1,0.1-0.2,0.2-0.4,0.2l-1.2,0.2C676.3,201.7,676.2,201.7,676.1,201.6z M682.2,192.1
		c2.4-0.4,3.6-1.5,3.6-3.6s-1.2-2.9-3.6-2.5l-4,0.6v6.1L682.2,192.1z"/>
	<path class="st4" d="M694.8,197.6c-1.2-1-1.8-2.5-1.8-4.4c0-0.5,0-1.2,0-2.3c0-1,0-1.8,0-2.3c0.1-2,0.7-3.6,1.8-4.9
		c1.2-1.3,2.8-2.1,4.9-2.4c1.4-0.2,2.6-0.1,3.6,0.2c1,0.4,1.7,0.9,2.2,1.5c0.5,0.6,0.8,1.3,0.8,1.9v0c0,0.1-0.1,0.2-0.2,0.3
		c-0.1,0.1-0.2,0.2-0.3,0.2l-1.3,0.2c-0.1,0-0.3,0-0.3,0c-0.1-0.1-0.1-0.2-0.2-0.3c-0.3-0.7-0.7-1.3-1.4-1.7
		c-0.7-0.4-1.6-0.5-2.8-0.4c-1.3,0.2-2.4,0.7-3.2,1.6s-1.2,2-1.2,3.6c0,0.5,0,1.2,0,2.1c0,0.9,0,1.7,0,2.1c0,1.5,0.5,2.6,1.2,3.3
		c0.8,0.6,1.8,0.8,3.2,0.6c1.4-0.2,2.4-0.7,3.3-1.6c0.8-0.9,1.2-2,1.2-3.5v-1l-3.7,0.5c-0.2,0-0.3,0-0.4-0.1
		c-0.1-0.1-0.2-0.2-0.2-0.4v-0.7c0-0.2,0.1-0.3,0.2-0.4c0.1-0.1,0.2-0.2,0.4-0.2l5.4-0.8c0.2,0,0.3,0,0.4,0.1
		c0.1,0.1,0.2,0.2,0.2,0.4v2.3c0,1.3-0.3,2.5-0.8,3.5s-1.3,1.9-2.3,2.6s-2.2,1.1-3.6,1.3C697.5,198.9,695.9,198.5,694.8,197.6z"/>
</g>
</svg>
